<?xml version="1.0" encoding="UTF-8"?>
<svg width="235px" height="235px" viewBox="0 0 235 235" version="1.1" xmlns="http://www.w3.org/2000/svg" xmlns:xlink="http://www.w3.org/1999/xlink">
    <!-- Generator: sketchtool 60.1 (101010) - https://sketch.com -->
    <title>7C01EF58-2DE8-46D7-AB0C-6B26FC110DA7</title>
    <desc>Created with sketchtool.</desc>
    <g id="login" stroke="none" stroke-width="1" fill="none" fill-rule="evenodd">
        <g id="01_login" transform="translate(-890.000000, -497.000000)" fill="#008344">
            <g id="ornement" transform="translate(890.000000, 497.000000)">
                <path d="M116.447722,0.000362654321 L138.93229,7.05616512 L138.93229,34.5076466 L152.754497,10.5659336 L175.75621,15.696767 L191.699944,33.0505015 L178.602321,55.7352546 L201.287074,42.6376312 L218.640809,58.582091 L223.771642,81.5830787 L200.026488,95.2921373 L227.280685,95.2921373 L234.337213,117.777431 L227.280685,140.261273 L202.146565,140.261273 L223.771642,152.746736 L218.640809,175.747724 L201.287074,191.691458 L178.602321,178.593835 L191.699944,201.279313 L175.75621,218.632323 L152.754497,223.763156 L138.93229,199.822168 L138.93229,228.029421 L116.447722,234.337431 L93.962429,228.029421 L93.962429,202.334637 L81.2129537,224.418835 L58.5862253,218.63885 L42.2689568,201.933542 L55.7437407,178.593835 L32.404034,192.069344 L15.6987253,175.75135 L9.91874074,153.124622 L32.1980463,140.261273 L6.30815432,140.261273 L0.00014506173,117.777431 L6.30815432,95.2921373 L34.3195741,95.2921373 L9.91874074,81.2044676 L15.698,58.5784645 L15.843787,58.436304 L32.404034,42.2604707 L55.7437407,55.7359799 L42.2689568,32.3955478 L58.5862253,15.6902392 L81.2129537,9.91170525 L93.962429,31.9959028 L93.962429,7.05616512 L116.447722,0.000362654321 Z M117.173031,162.133681 L95.4130463,199.822168 L95.4130463,226.929853 L116.447722,232.830239 L137.481673,226.929853 L137.481673,197.309699 L117.173031,162.133681 Z M93.962429,156.52777 L58.2562099,177.143218 L44.07425,201.707245 L59.339821,217.33402 L80.5057778,222.741196 L93.962429,199.433403 L93.962429,156.52777 Z M138.93229,155.690764 L138.93229,196.920208 L153.478355,222.11598 L174.994636,217.316613 L189.910608,201.082029 L176.089127,177.143218 L138.93229,155.690764 Z M108.942954,147.87919 L95.4130463,155.690764 L95.4130463,196.920208 L116.334574,160.683063 L108.942954,147.87919 Z M125.402383,147.87919 L118.010762,160.683063 L137.481673,194.407739 L137.481673,154.853032 L125.402383,147.87919 Z M77.8750833,140.261273 L35.1000062,140.261273 L11.5963796,153.831073 L17.0035556,174.997755 L32.6303302,190.263326 L57.194358,176.081366 L77.8750833,140.261273 Z M199.244605,140.261273 L156.470978,140.261273 L177.151704,176.081366 L201.08979,189.902122 L217.325099,174.986875 L222.124466,153.471319 L199.244605,140.261273 Z M107.349886,153.824327 L111.310071,160.683571 L99.7653333,180.679605 L99.7653333,158.203741 L107.349886,153.824327 Z M126.995596,153.823892 L133.129531,157.365574 L133.129531,178.167426 L123.03541,160.683861 L126.995596,153.823892 Z M154.79479,140.261273 L138.93229,140.261273 L138.93229,154.015301 L174.638509,174.630023 L154.79479,140.261273 Z M93.962429,140.261273 L79.549821,140.261273 L59.7075525,174.630023 L93.962429,154.853032 L93.962429,140.261273 Z M89.6110849,144.61356 L89.6110849,152.340273 L71.5958688,162.741924 L82.0627978,144.61356 L89.6110849,144.61356 Z M152.282974,144.613415 L162.749903,162.741054 L143.284069,151.502397 L143.284069,144.613415 L152.282974,144.613415 Z M117.173031,75.0980941 L109.47388,88.4321682 L95.4130463,80.3145139 L95.4130463,96.7434799 L81.0947284,96.7434799 L88.4406543,109.466119 L75.1051296,117.164545 L88.4406543,124.863696 L80.3875525,138.810656 L95.4130463,138.810656 L95.4130463,154.015301 L109.47388,145.897647 L117.173031,159.231721 L124.871457,145.897647 L137.481673,153.177569 L137.481673,138.810656 L153.957784,138.810656 L145.905407,124.863696 L159.240207,117.164545 L145.905407,109.466844 L153.251333,96.7434799 L137.481673,96.7434799 L137.481673,81.1515201 L124.871457,88.4314429 L117.173031,75.0980941 Z M226.215932,96.7434799 L197.514019,96.7434799 L162.141441,117.164545 L199.634096,138.810656 L226.215932,138.810656 L232.817691,117.777431 L226.215932,96.7434799 Z M36.8320432,96.7434799 L7.40772222,96.7434799 L1.50733642,117.777431 L7.40772222,138.810656 L34.7105154,138.810656 L72.2031698,117.164545 L36.8320432,96.7434799 Z M160.690824,118.003002 L147.887676,125.395347 L155.633247,138.810656 L196.732136,138.810656 L160.690824,118.003002 Z M73.6545123,118.002276 L37.6124753,138.810656 L78.7128148,138.810656 L86.4583858,125.395347 L73.6545123,118.002276 Z M73.6543673,123.027505 L80.5136111,126.98769 L76.1994753,134.459094 L53.8534414,134.459094 L73.6543673,123.027505 Z M160.691187,123.027505 L180.491387,134.459094 L158.146079,134.459094 L153.831943,126.98769 L160.691187,123.027505 Z M194.612784,96.7434799 L154.926071,96.7434799 L147.887676,108.935193 L160.690824,116.327539 L194.612784,96.7434799 Z M79.4192654,96.7434799 L39.7340031,96.7434799 L73.6545123,116.326813 L86.4583858,108.934468 L79.4192654,96.7434799 Z M76.9065787,101.094897 L80.5135386,107.34198 L73.6542948,111.302165 L55.9741713,101.094897 L76.9065787,101.094897 Z M178.371093,101.094897 L160.690969,111.302165 L153.831725,107.34198 L157.43941,101.094897 L178.371093,101.094897 Z M59.7075525,59.6997917 L80.2569969,95.2921373 L93.962429,95.2921373 L93.962429,79.4775077 L59.7075525,59.6997917 Z M174.638509,59.6990664 L138.93229,80.3145139 L138.93229,95.2921373 L154.089065,95.2921373 L174.638509,59.6990664 Z M201.08979,44.4269676 L177.151704,58.2484491 L155.763802,95.2921373 L197.125253,95.2921373 L222.124466,80.8592207 L217.325099,59.3429398 L201.08979,44.4269676 Z M32.6303302,44.0664892 L17.0028302,59.3320602 L11.5963796,80.498017 L37.221534,95.2921373 L78.5822593,95.2921373 L57.1950833,58.2491744 L32.6303302,44.0664892 Z M71.5960864,71.5878904 L89.6113025,81.9895417 L89.6113025,90.9405756 L82.769466,90.9405756 L71.5960864,71.5878904 Z M162.749613,71.5881806 L151.576233,90.9408657 L143.283779,90.9408657 L143.283779,82.826838 L162.749613,71.5881806 Z M95.4130463,37.4096065 L95.4130463,78.6390509 L108.942954,86.450625 L116.335299,73.6467515 L95.4130463,37.4096065 Z M137.481673,39.9213503 L118.010762,73.6467515 L125.402383,86.4498997 L137.481673,79.4760571 L137.481673,39.9213503 Z M133.129531,56.1623889 L133.129531,76.9635154 L126.99487,80.5059228 L123.03541,73.646679 L133.129531,56.1623889 Z M99.7653333,53.6502099 L111.310071,73.6462438 L107.349886,80.5054877 L99.7653333,76.1260741 L99.7653333,53.6502099 Z M153.478355,12.2131096 L138.93229,37.4088812 L138.93229,78.6383256 L176.089127,57.1865972 L189.910608,33.2477855 L174.994636,17.0132022 L153.478355,12.2131096 Z M80.5057778,11.5886188 L59.339821,16.9950694 L44.07425,32.6232948 L58.2569352,57.1865972 L93.962429,77.8013194 L93.962429,34.8971373 L80.5057778,11.5886188 Z M116.447722,1.51988426 L95.4130463,8.12164352 L95.4130463,34.5083719 L117.173031,72.195409 L137.481673,37.0201157 L137.481673,8.12164352 L116.447722,1.51988426 Z" id="ornements"></path>
            </g>
        </g>
    </g>
</svg>