<?xml version="1.0" encoding="UTF-8"?>
<svg width="235px" height="245px" viewBox="0 0 235 245" version="1.1" xmlns="http://www.w3.org/2000/svg" xmlns:xlink="http://www.w3.org/1999/xlink">
    <!-- Generator: sketchtool 60.1 (101010) - https://sketch.com -->
    <title>70DF6E0E-BE32-4E15-ADCA-77C45421F4AB</title>
    <desc>Created with sketchtool.</desc>
    <g id="login" stroke="none" stroke-width="1" fill="none" fill-rule="evenodd" opacity="0.25">
        <g id="Login" transform="translate(-870.000000, -469.000000)" fill="#007e42">
            <g id="Ornement" transform="translate(870.000000, 469.000000)">
                <g id="Group-3">
                    <path d="M117.68001,0.000156549521 L147.054227,8.50784026 L147.054227,32.6008115 L161.076677,13.1166581 L189.530477,23.385524 L208.191043,47.4111789 L194.117677,66.8788946 L216.870377,59.4921054 L233.994043,84.6042141 L234.912893,114.979518 L211.927543,122.44145 L234.912893,129.904166 L233.994043,160.278687 L216.870377,185.392361 L194.126293,178.007137 L208.134643,197.471722 L189.584527,221.498942 L161.04926,231.764677 L147.054227,212.2907 L147.054227,236.375843 L117.68001,244.883527 L88.30501,236.375843 L88.30501,212.215556 L74.08046,231.759198 L45.4370933,221.500508 L26.8321433,197.466243 L41.05121,177.921035 L18.04236,185.392361 L0.919476667,160.27947 L-0.000156666666,129.904166 L22.9851933,122.44145 L-0.000156666666,114.979518 L0.918693333,84.6049968 L18.04236,59.4921054 L41.0519933,66.9626486 L26.8258767,47.4174409 L45.4425767,23.3839585 L74.0773267,13.1237029 L88.30501,32.6681278 L88.30501,8.50784026 L117.68001,0.000156549521 Z M117.68001,172.053559 L93.00501,205.761802 L93.00501,232.846435 L117.68001,239.994486 L142.35501,232.846435 L142.35501,205.761802 L117.68001,172.053559 Z M88.30501,162.592489 L86.0662433,163.318879 L48.6503267,175.46399 L32.70636,197.378575 L48.31506,217.542153 L72.35086,226.150029 L88.30501,204.230748 L88.30501,162.592489 Z M147.054227,162.597185 L147.054227,204.238575 L162.796877,226.145332 L186.70186,217.543719 L202.27531,197.373879 L186.571827,175.554006 L186.279643,175.459294 L186.216193,175.371626 L147.054227,162.597185 Z M128.822143,156.732058 L120.66216,168.067026 L142.35501,197.789518 L142.35501,161.073176 L128.822143,156.732058 Z M106.32716,156.734406 L93.00501,161.066131 L93.00501,197.765252 L114.58271,168.077201 L106.32716,156.734406 Z M204.32216,124.910236 L164.932243,137.700332 L189.38321,171.456323 L189.420027,171.468064 L189.488177,171.563559 L214.970793,179.836419 L229.337127,158.766419 L230.10871,133.282505 L204.32216,124.910236 Z M30.5897933,124.910236 L4.80402667,133.282505 L5.57561,158.767201 L19.9419433,179.836419 L45.72771,171.464933 L70.2209767,137.777824 L41.85021,128.56645 L30.5897933,124.910236 Z M74.94291,139.303399 L53.3644267,168.992233 L88.30501,157.654134 L88.30501,143.63669 L74.94291,139.303399 Z M160.052077,139.386371 L147.054227,143.632776 L147.054227,157.656482 L181.500527,168.886562 L160.052077,139.386371 Z M117.589143,80.6607316 L108.120993,93.6707796 L93.00501,88.7559073 L93.00501,104.659773 L77.8318433,109.583256 L87.1809267,122.44145 L77.8302767,135.301994 L93.00501,140.222345 L93.00501,156.126994 L108.120993,151.212904 L117.589143,164.222952 L117.68001,164.099278 L117.704293,164.132153 L127.00246,151.216035 L142.35501,156.141083 L142.35501,140.227042 L157.149827,135.393575 L157.08716,135.309038 L147.73181,122.44145 L157.08716,109.574645 L157.13416,109.51046 L142.35501,104.653511 L142.35501,88.7426006 L127.00246,93.6668658 L117.704293,80.7507476 L117.68001,80.7851885 L117.589143,80.6607316 Z M123.50801,103.982618 L125.514127,111.511867 L133.299677,111.091532 L130.493777,118.360909 L137.040093,122.594008 L130.493777,126.827107 L133.299677,134.095701 L125.514127,133.676149 L123.50801,141.204615 L117.45676,136.292091 L111.404727,141.204615 L109.39861,133.676149 L101.61306,134.095701 L104.41896,126.827107 L97.8734267,122.594008 L104.41896,118.360909 L101.61306,111.091532 L109.39861,111.511867 L111.404727,103.982618 L117.45676,108.895925 L123.50801,103.982618 Z M161.78716,111.10022 L153.54101,122.44145 L161.78716,133.782681 L193.61556,123.448847 L196.718343,122.44145 L193.61556,121.434054 L161.78716,111.10022 Z M73.1255767,111.10022 L50.8593267,118.329677 L38.1951767,122.44145 L50.8593267,126.554006 L73.1255767,133.782681 L81.3717267,122.44145 L73.1255767,111.10022 Z M19.9419433,65.0464824 L5.57482667,86.1172652 L4.80402667,111.600396 L30.5897933,119.972665 L41.85021,116.31645 L70.2209767,107.105077 L45.72771,73.4179681 L19.9419433,65.0464824 Z M214.970793,65.0464824 L189.582177,73.2895974 L164.861743,107.160652 L204.32216,119.972665 L230.10871,111.600396 L229.337127,86.1164824 L214.970793,65.0464824 Z M53.3542433,75.886754 L74.95231,105.579502 L88.30501,101.247776 L88.30501,87.2287668 L66.1343267,80.0337508 L53.3542433,75.886754 Z M181.481727,76.0237348 L147.054227,87.227984 L147.054227,101.254821 L160.034843,105.520013 L181.481727,76.0237348 Z M142.35501,47.0933834 L120.66216,76.8166581 L128.822143,88.1508435 L142.35501,83.810508 L142.35501,47.0933834 Z M93.00501,47.1184313 L93.00501,83.81677 L106.32716,88.1477125 L114.58271,76.8064824 L93.00501,47.1184313 Z M72.34851,18.7328722 L48.31976,27.3415304 L32.7024433,47.5051086 L48.6550267,69.4228243 L88.30501,82.2904121 L88.30501,40.6521534 L72.34851,18.7328722 Z M162.819593,18.7399169 L147.054227,40.6451086 L147.054227,82.2864984 L186.216193,69.5112748 L186.279643,69.4228243 L186.541277,69.3382875 L202.319177,47.5121534 L186.653293,27.3399649 L162.819593,18.7399169 Z M117.68001,4.88919808 L93.00501,12.0364665 L93.00501,39.121099 L117.68001,72.8301246 L142.35501,39.121099 L142.35501,12.0364665 L117.68001,4.88919808 Z" id="Combined-Shape"></path>
                </g>
            </g>
        </g>
    </g>
</svg>